<?xml version="1.0" encoding="UTF-8" standalone="no"?>
<!-- Created with Inkscape (http://www.inkscape.org/) -->

<svg
   width="48.568398mm"
   height="23.385363mm"
   viewBox="0 0 48.568398 23.385363"
   version="1.1"
   id="svg3734"
   sodipodi:docname="cloud2.svg"
   inkscape:version="1.1.2 (0a00cf5339, 2022-02-04)"
   xmlns:inkscape="http://www.inkscape.org/namespaces/inkscape"
   xmlns:sodipodi="http://sodipodi.sourceforge.net/DTD/sodipodi-0.dtd"
   xmlns="http://www.w3.org/2000/svg"
   xmlns:svg="http://www.w3.org/2000/svg">
  <sodipodi:namedview
     id="namedview3736"
     pagecolor="#7de4e3"
     bordercolor="#666666"
     borderopacity="1.0"
     inkscape:pageshadow="2"
     inkscape:pageopacity="0"
     inkscape:pagecheckerboard="0"
     inkscape:document-units="mm"
     showgrid="false"
     inkscape:zoom="2.5620932"
     inkscape:cx="143.0471"
     inkscape:cy="-10.538259"
     inkscape:window-width="1198"
     inkscape:window-height="1071"
     inkscape:window-x="722"
     inkscape:window-y="9"
     inkscape:window-maximized="0"
     inkscape:current-layer="layer1"
     fit-margin-top="1"
     fit-margin-left="1"
     fit-margin-right="1"
     fit-margin-bottom="1"
     inkscape:snap-global="false" />
  <defs
     id="defs3731" />
  <g
     inkscape:label="Layer 1"
     inkscape:groupmode="layer"
     id="layer1"
     transform="translate(-87.245691,-95.709674)">
    <path
       style="font-variation-settings:normal;vector-effect:none;fill:#ffffff;fill-opacity:1;stroke:#ffffff;stroke-width:0.264583px;stroke-linecap:butt;stroke-linejoin:miter;stroke-miterlimit:4;stroke-dasharray:none;stroke-dashoffset:0;stroke-opacity:1;-inkscape-stroke:none;stop-color:#000000"
       d="m 90.683235,117.95638 h 35.768575 c 1.52341,0 4.07965,-0.34382 3.49855,-2.9659 -0.27066,-1.22132 -2.48177,-0.60305 -2.48177,-0.60305 1.28922,-1.38891 -0.61612,-1.84621 -1.13772,-2.53688 -1.19993,-1.58886 -2.19346,-1.43544 -2.19346,-1.43544 0,0 0.0625,-1.19092 -0.41078,-2.04685 -0.36979,-0.66877 -1.52944,-0.99834 -2.76615,-0.90012 -1.3635,0.10829 -0.73276,-1.49834 -0.73276,-1.49834 0,0 -0.0345,-1.45424 -1.04499,-2.86173 -0.78346,-1.09128 -1.35142,-1.34296 -2.14358,-1.33978 -1.89125,0.008 -1.29195,1.60133 -1.29195,1.60133 0,0 -1.04186,-3.718917 -2.30777,-2.29301 -1.39189,-3.723653 -9.39041,-5.856755 -13.604272,-1.229518 0,0 -1.461737,-0.971038 -3.541424,-1.013368 -2.079692,-0.0423 -2.611815,0.89713 -2.619631,2.353616 -0.0078,1.45648 -0.892011,1.89384 -0.892011,1.89384 0,0 -0.487395,-0.22801 -1.120727,0.64137 -0.633332,0.86938 -0.916475,0.95099 -0.409956,1.75381 0.449859,0.71302 1.112987,0.88571 1.112987,0.88571 0,0 1.062466,4.16639 -0.447983,4.76652 -1.119603,0.44486 -1.393698,0.999 -1.235894,1.86374 0.08996,0.49296 0.510261,1.35903 0.510261,1.35903 0,0 -1.842858,0.13549 -2.367518,0.93589 -0.631633,0.96358 -0.533795,1.39273 -0.06521,1.95805 0.468591,0.56531 1.925158,0.71111 1.925158,0.71111 z"
       id="path932"
       sodipodi:nodetypes="csscscsscsscccsscsscsscsscc" />
  </g>
</svg>
