<?xml version="1.0" encoding="UTF-8" standalone="no"?>
<!-- Created with Inkscape (http://www.inkscape.org/) -->

<svg
   width="48.568398mm"
   height="23.385363mm"
   viewBox="0 0 48.568398 23.385363"
   version="1.1"
   id="svg3734"
   inkscape:version="1.1.2 (0a00cf5339, 2022-02-04)"
   sodipodi:docname="cloud1.svg"
   xmlns:inkscape="http://www.inkscape.org/namespaces/inkscape"
   xmlns:sodipodi="http://sodipodi.sourceforge.net/DTD/sodipodi-0.dtd"
   xmlns="http://www.w3.org/2000/svg"
   xmlns:svg="http://www.w3.org/2000/svg">
  <sodipodi:namedview
     id="namedview3736"
     pagecolor="#84e5e4"
     bordercolor="#666666"
     borderopacity="1.0"
     inkscape:pageshadow="2"
     inkscape:pageopacity="0"
     inkscape:pagecheckerboard="0"
     inkscape:document-units="mm"
     showgrid="false"
     inkscape:zoom="2.5620932"
     inkscape:cx="90.550962"
     inkscape:cy="-6.8303527"
     inkscape:window-width="1920"
     inkscape:window-height="1080"
     inkscape:window-x="0"
     inkscape:window-y="0"
     inkscape:window-maximized="0"
     inkscape:current-layer="layer1"
     fit-margin-top="1"
     fit-margin-left="1"
     fit-margin-right="1"
     fit-margin-bottom="1"
     inkscape:snap-global="false" />
  <defs
     id="defs3731" />
  <g
     inkscape:label="Layer 1"
     inkscape:groupmode="layer"
     id="layer1"
     transform="translate(-87.245691,-95.709674)">
    <path
       id="path932"
       style="font-variation-settings:normal;vector-effect:none;fill:#ffffff;fill-opacity:1;stroke:#ffffff;stroke-width:0.999999px;stroke-linecap:butt;stroke-linejoin:miter;stroke-miterlimit:4;stroke-dasharray:none;stroke-dashoffset:0;stroke-opacity:1;-inkscape-stroke:none;stop-color:#000000"
       d="M 67.232422 0.57226562 C 66.517471 0.56736674 65.797188 0.60773825 65.074219 0.6953125 C 53.064694 2.1499846 45.776111 3.8167284 42.835938 20.587891 C 42.556931 22.179333 42.475867 23.710332 42.578125 25.173828 C 41.5435 25.063826 40.507771 25.033976 39.492188 25.113281 C 34.455083 25.506617 28.244385 30.401406 28.214844 35.90625 C 28.205514 37.648459 28.451485 38.890628 28.792969 39.779297 C 21.907908 40.463843 15.708632 45.128201 13.673828 51.880859 C 12.196059 56.784927 11.112313 60.896264 11.535156 64.736328 C 6.7329607 64.730444 3.501262 69.468776 2.7753906 74.441406 C 1.9061295 80.396316 7.1797621 85.027936 12.427734 84.09375 C 12.521883 84.076991 12.610268 84.059749 12.703125 84.042969 C 12.770983 84.050815 12.992188 84.082031 12.992188 84.082031 L 148.17969 84.082031 C 167.34779 84.082031 175.21341 80.179584 176.74805 74.431641 C 177.98865 69.78501 175.15961 64.211788 171.67383 61.990234 C 172.32043 51.472968 162.11829 44.514453 151.47852 43.117188 C 150.42981 42.97946 149.40331 42.934495 148.40234 42.972656 C 148.3516 42.772859 148.30176 42.558474 148.25195 42.324219 C 148.02254 41.245088 147.54346 40.739337 146.85938 40.605469 C 148.65192 35.661115 145.73423 30.199364 140.90039 28.931641 C 135.2218 27.44228 131.63552 26.891729 127.3125 33.933594 C 126.93364 34.550718 126.64008 35.174428 126.42773 35.800781 C 125.17063 33.178337 122.93241 31.0631 120.08984 30.125 C 122.13964 20.274777 115.73572 10.354284 106.18555 8.3613281 C 96.948197 6.4335998 90.38918 5.5489546 84.078125 12.345703 C 81.344477 5.432041 74.584056 0.6226394 67.232422 0.57226562 z M 129.37891 45.283203 C 129.64554 45.537999 129.92701 45.786853 130.22266 46.03125 C 129.32794 46.253297 128.66797 46.410156 128.66797 46.410156 C 128.66797 46.410156 129.06036 46.013762 129.37891 45.283203 z "
       transform="matrix(0.26458333,0,0,0.26458333,87.245691,95.709674)" />
  </g>
</svg>
