<?xml version="1.0" encoding="UTF-8" standalone="no"?>
<!-- Created with Inkscape (http://www.inkscape.org/) -->

<svg
   width="48.568398mm"
   height="23.385363mm"
   viewBox="0 0 48.568398 23.385363"
   version="1.1"
   id="svg3734"
   sodipodi:docname="cloud2.svg"
   inkscape:version="1.1.2 (0a00cf5339, 2022-02-04)"
   xmlns:inkscape="http://www.inkscape.org/namespaces/inkscape"
   xmlns:sodipodi="http://sodipodi.sourceforge.net/DTD/sodipodi-0.dtd"
   xmlns="http://www.w3.org/2000/svg"
   xmlns:svg="http://www.w3.org/2000/svg">
  <sodipodi:namedview
     id="namedview3736"
     pagecolor="#7de4e3"
     bordercolor="#666666"
     borderopacity="1.0"
     inkscape:pageshadow="2"
     inkscape:pageopacity="0"
     inkscape:pagecheckerboard="0"
     inkscape:document-units="mm"
     showgrid="false"
     inkscape:zoom="5.1241864"
     inkscape:cx="80.403008"
     inkscape:cy="61.180444"
     inkscape:window-width="1920"
     inkscape:window-height="1080"
     inkscape:window-x="0"
     inkscape:window-y="0"
     inkscape:window-maximized="0"
     inkscape:current-layer="layer1"
     fit-margin-top="1"
     fit-margin-left="1"
     fit-margin-right="1"
     fit-margin-bottom="1"
     inkscape:snap-global="false" />
  <defs
     id="defs3731" />
  <g
     inkscape:label="Layer 1"
     inkscape:groupmode="layer"
     id="layer1"
     transform="translate(-87.245691,-95.709674)">
    <path
       id="path932"
       style="font-variation-settings:normal;vector-effect:none;fill:#ffffff;fill-opacity:1;stroke:#ffffff;stroke-width:0.999999px;stroke-linecap:butt;stroke-linejoin:miter;stroke-miterlimit:4;stroke-dasharray:none;stroke-dashoffset:0;stroke-opacity:1;-inkscape-stroke:none;stop-color:#000000"
       d="M 46.160156 2.7753906 C 40.058733 2.7684388 33.703052 4.1201187 27.640625 6.46875 C 9.1646124 13.626431 1.6430855 30.477169 8.8007812 48.953125 C 10.176507 52.50414 11.877382 55.815758 13.890625 58.779297 C 13.126683 59.119138 12.404342 59.632655 11.742188 60.291016 C 9.3126214 62.706716 9.7871417 65.616443 11.480469 67.929688 C 11.004135 67.905344 10.515399 67.912905 10.015625 67.955078 C 4.740134 68.400306 2.9155216 72.911184 3.2949219 77.417969 C 3.6739064 81.925207 6.8819254 84.656771 11.388672 84.277344 L 11.390625 84.275391 C 11.889105 84.233428 12.376676 84.162509 12.849609 84.0625 C 12.866739 84.064341 12.992188 84.082031 12.992188 84.082031 L 148.17969 84.082031 C 148.34053 84.082031 148.51505 84.076406 148.68164 84.074219 C 149.78461 84.221208 150.91053 84.292969 152.04297 84.292969 C 160.73841 84.292969 166.48828 78.589977 166.48828 69.894531 C 166.48828 61.199086 161.87966 53.758 150.74219 54.150391 C 147.15251 54.276854 144.20816 55.103361 141.875 56.470703 C 139.85095 55.231225 137.82666 55.035973 135.96484 55.648438 C 139.07328 50.272849 138.91948 43.90223 132.69336 38.064453 C 128.55538 34.184416 124.30857 32.716813 120.32617 33.119141 C 117.93694 17.654872 104.02316 12.474973 90.210938 13.832031 C 83.745021 14.467326 78.460382 16.926648 74.742188 20.751953 C 68.83463 7.9035663 57.97683 2.7888542 46.160156 2.7753906 z "
       transform="matrix(0.26458333,0,0,0.26458333,87.245691,95.709674)" />
  </g>
</svg>
