<?xml version="1.0" encoding="UTF-8" standalone="no"?>
<!-- Created with Inkscape (http://www.inkscape.org/) -->

<svg
   width="48.568398mm"
   height="23.385363mm"
   viewBox="0 0 48.568398 23.385363"
   version="1.1"
   id="svg3734"
   sodipodi:docname="cloud3.svg"
   inkscape:version="1.1.2 (0a00cf5339, 2022-02-04)"
   xmlns:inkscape="http://www.inkscape.org/namespaces/inkscape"
   xmlns:sodipodi="http://sodipodi.sourceforge.net/DTD/sodipodi-0.dtd"
   xmlns="http://www.w3.org/2000/svg"
   xmlns:svg="http://www.w3.org/2000/svg">
  <sodipodi:namedview
     id="namedview3736"
     pagecolor="#7de4e3"
     bordercolor="#666666"
     borderopacity="1.0"
     inkscape:pageshadow="2"
     inkscape:pageopacity="0"
     inkscape:pagecheckerboard="0"
     inkscape:document-units="mm"
     showgrid="false"
     inkscape:zoom="5.1241863"
     inkscape:cx="69.669598"
     inkscape:cy="39.518469"
     inkscape:window-width="1920"
     inkscape:window-height="1080"
     inkscape:window-x="0"
     inkscape:window-y="0"
     inkscape:window-maximized="0"
     inkscape:current-layer="layer1"
     fit-margin-top="1"
     fit-margin-left="1"
     fit-margin-right="1"
     fit-margin-bottom="1"
     inkscape:snap-global="false" />
  <defs
     id="defs3731" />
  <g
     inkscape:label="Layer 1"
     inkscape:groupmode="layer"
     id="layer1"
     transform="translate(-87.245691,-95.709674)">
    <path
       id="path932"
       style="font-variation-settings:normal;vector-effect:none;fill:#ffffff;fill-opacity:1;stroke:#ffffff;stroke-width:0.999999px;stroke-linecap:butt;stroke-linejoin:miter;stroke-miterlimit:4;stroke-dasharray:none;stroke-dashoffset:0;stroke-opacity:1;-inkscape-stroke:none;stop-color:#000000"
       d="M 61.671875 24.482422 C 49.800723 24.627206 39.957423 33.970552 36.771484 45.564453 C 35.355204 46.279666 34.099627 47.101539 33.029297 48.021484 C 31.549224 47.536875 29.982697 47.185766 28.351562 46.998047 C 18.632383 45.879496 10.632561 54.929584 10.636719 64.712891 C 10.637918 67.39777 11.071528 69.758016 11.873047 71.800781 C 11.10204 71.900523 10.39065 72.115815 9.8125 72.494141 C 6.8639091 74.423627 5.9667449 77.419751 6.2382812 80.181641 C 6.5743568 83.600072 7.4793232 84.082031 12.992188 84.082031 L 94.191406 84.082031 C 94.831168 84.156758 95.485713 84.208166 96.154297 84.236328 C 105.1001 84.613185 111.19311 77.475968 112.33789 68.595703 C 113.30095 61.124976 106.01998 53.521357 96.126953 52.382812 C 95.286932 52.286138 94.461398 52.273898 93.654297 52.335938 C 94.455986 39.410912 81.722742 26.602114 64.611328 24.632812 C 63.619386 24.518654 62.639371 24.470622 61.671875 24.482422 z "
       transform="matrix(0.26458333,0,0,0.26458333,87.245691,95.709674)" />
  </g>
</svg>
