<?xml version="1.0" encoding="UTF-8" standalone="no"?>
<!-- Created with Inkscape (http://www.inkscape.org/) -->

<svg
   width="48.568398mm"
   height="23.385363mm"
   viewBox="0 0 48.568398 23.385363"
   version="1.1"
   id="svg3734"
   inkscape:version="1.1.2 (0a00cf5339, 2022-02-04)"
   sodipodi:docname="cloud1.svg"
   xmlns:inkscape="http://www.inkscape.org/namespaces/inkscape"
   xmlns:sodipodi="http://sodipodi.sourceforge.net/DTD/sodipodi-0.dtd"
   xmlns="http://www.w3.org/2000/svg"
   xmlns:svg="http://www.w3.org/2000/svg">
  <sodipodi:namedview
     id="namedview3736"
     pagecolor="#7de4e3"
     bordercolor="#666666"
     borderopacity="1.0"
     inkscape:pageshadow="2"
     inkscape:pageopacity="0"
     inkscape:pagecheckerboard="0"
     inkscape:document-units="mm"
     showgrid="false"
     inkscape:zoom="5.1241863"
     inkscape:cx="108.01715"
     inkscape:cy="60.107104"
     inkscape:window-width="1198"
     inkscape:window-height="1071"
     inkscape:window-x="722"
     inkscape:window-y="9"
     inkscape:window-maximized="0"
     inkscape:current-layer="layer1"
     fit-margin-top="1"
     fit-margin-left="1"
     fit-margin-right="1"
     fit-margin-bottom="1" />
  <defs
     id="defs3731" />
  <g
     inkscape:label="Layer 1"
     inkscape:groupmode="layer"
     id="layer1"
     transform="translate(-87.245691,-95.709674)">
    <path
       style="font-variation-settings:normal;vector-effect:none;fill:#ffffff;fill-opacity:1;stroke:#ffffff;stroke-width:0.264583px;stroke-linecap:butt;stroke-linejoin:miter;stroke-miterlimit:4;stroke-dasharray:none;stroke-dashoffset:0;stroke-opacity:1;-inkscape-stroke:none;stop-color:#000000"
       d="m 90.683235,117.95638 h 35.768575 c 10.86294,0 8.74182,-7.36705 6.10029,-7.85216 -1.16845,-0.21457 -2.37157,0.0265 -2.37157,0.0265 0,0 1.91676,-2.51562 1.39516,-3.2045 -1.2019,-1.58738 -2.05949,-0.99176 -2.05949,-0.99176 0,0 0.14919,-0.77902 -0.0542,-1.7357 -0.20338,-0.95669 -1.35818,-1.20785 -2.6372,-0.72314 -1.27902,0.48471 -2.42622,1.2443 -2.42622,1.2443 0,0 -0.10556,-0.35534 -1.20455,-1.69485 -1.099,-1.33951 -3.44568,-1.56368 -4.18148,-1.04565 -1.54645,1.08875 -1.94212,1.57771 -1.94212,1.57771 0,0 0.83612,-3.06142 -0.45146,-4.560091 -1.28758,-1.498674 -4.7258,-0.83206 -5.89938,-0.149609 -1.10315,0.64149 -2.39906,1.91894 -2.39906,1.91894 0,0 0.0351,-2.178018 -0.36574,-3.183006 -0.3068,-0.76915 -2.11272,-1.059485 -2.76486,-0.284124 -0.30866,0.366985 -0.34935,1.454692 -0.34935,1.454692 0,0 -1.60273,-1.171892 -2.63699,-0.606078 -1.03426,0.565813 -1.54129,0.140312 -1.36334,2.531376 0.17795,2.39107 1.3287,3.05273 1.3287,3.05273 0,0 -2.39465,-1.33548 -4.474337,-1.37781 -2.079692,-0.0423 -2.611815,0.89713 -2.619631,2.35362 -0.0078,1.45648 0.296222,2.10283 0.296222,2.10283 0,0 -1.381859,-0.1916 -2.015191,0.67778 -0.633332,0.86938 -0.5365,0.64806 -0.484914,1.59591 0.03588,0.65935 1.069323,1.38297 1.069323,1.38297 0,0 -0.51356,0.0612 -2.024009,0.66133 -1.119603,0.44486 -1.393698,0.999 -1.235894,1.86374 0.08996,0.49296 0.510261,1.35903 0.510261,1.35903 0,0 -1.842858,0.13549 -2.367518,0.93589 -0.631633,0.96358 -0.533795,1.39273 -0.06521,1.95805 0.468591,0.56531 1.925158,0.71111 1.925158,0.71111 z"
       id="path932"
       sodipodi:nodetypes="csscscsscsscsscsscsscsscsscsscsscc" />
  </g>
</svg>
