<?xml version="1.0" encoding="iso-8859-1"?>
<!DOCTYPE svg PUBLIC "-//W3C//DTD SVG 1.1//EN" "http://www.w3.org/Graphics/SVG/1.1/DTD/svg11.dtd" [
	<!ENTITY ns_svg "http://www.w3.org/2000/svg">
	<!ENTITY ns_xlink "http://www.w3.org/1999/xlink">
]>
<svg  version="1.1" xmlns="&ns_svg;" xmlns:xlink="&ns_xlink;" width="240.946" height="153.071" viewBox="0 0 240.946 153.071"
	 style="overflow:visible;enable-background:new 0 0 240.946 153.071;" xml:space="preserve">

<g id="Quelab">
	<path style="fill-rule:evenodd;clip-rule:evenodd;" d="M222.573,79.903c5.586,1.291,7.834,5.443,7.643,10.27
		c-0.198,4.988-3.391,10.699-9.535,10.795c-1.195,0.016-11.701,0-16.57,0c-1.312-0.096-1.884-1.149-1.884-2.628
		c0.05-10.603,0.294-20.428,0.241-31.428c0.275-0.712,0.427-2.913,2.576-3.341c4.659-0.933,12.4-0.486,14.043-0.143
		C227.351,65.146,230.407,75.797,222.573,79.903z M217.109,71.839c-1.766-0.335-4.076-0.385-6.305-0.172l0.019,7.759
		c0,0,4.041,0.825,6.545-0.19C221.333,76.513,218.319,72.071,217.109,71.839z M220.137,84.823c-2.052-0.86-10.23-0.221-9.407-0.285
		v8.547c0,0,7.882,0.573,8.692,0C224.819,90.89,221.631,85.447,220.137,84.823z"/>
	<path style="fill-rule:evenodd;clip-rule:evenodd;" d="M184.384,88.321l-10.159,0.002c-2.073,7.898-2.788,9.662-3.082,10.635
		c-0.863,2.845-9.574,3.455-7.841-2.719c1.182-4.202,9.858-25.521,10.793-28.657c1.577-5.303,8.171-4.92,9.748,0.006
		c0,0,11.663,28.315,11.714,28.507c1.705,6.185-6.848,5.827-7.61,2.912C187.755,98.282,184.384,88.321,184.384,88.321z
		 M174.877,85.54h8.723l-4.49-12.657L174.877,85.54z"/>
	<path style="fill-rule:evenodd;clip-rule:evenodd;" d="M142.145,66.053c-1.052-3.677-6.784-4.012-7.451,0.239
		c-0.409,2.596-0.205,25.924-0.43,30.569c-0.144,2.958,2.054,3.531,3.009,3.963c1.311,0.59,15.617,0.231,16.188-0.051
		c4.122-1.266,3.453-7.622,0-8.261c-1.527-0.43-6.555,0.31-11.555,0.623C141.829,88.657,142.655,67.842,142.145,66.053z"/>
	<path d="M106.084,66.148c0,0,0.43-2.388,2.819-2.674c1.393-0.167,12.847-0.24,15.521-0.047c4.294,1.479,3.201,7.88,0.489,8.023
		c-2.415,0.129-12.382,0.191-12.382,0.191l0.005,6.873c0,0,8.449-0.664,11.597-0.236c3.347,1.863,2.582,6.93,0.29,8.023
		c-1.671,0.864-11.887-0.037-11.887-0.037v7c5.375-0.188,8.402-0.893,11.887-0.607c2.864,0.478,5.541,5.73,0.476,8.166
		c-2.146,0.478-11.175,0.43-15.95,0.191c-1.92-0.38-2.961-1.909-3.01-2.962C105.879,96.714,106.084,66.148,106.084,66.148z"/>
	<path style="fill-rule:evenodd;clip-rule:evenodd;" d="M99.164,72.435c-0.151-3.595,0.399-7.247-2.106-7.576
		c-5.826-0.763-7.212,3.725-7.146,4.25c0.349,2.813,1.033,18.771,0.239,21.636c-1.724,6.222-11.56,6.263-14.139,0
		c-1.003-2.437,0.148-18.813,0.383-21.636c0.048-0.572-0.925-5.013-6.753-4.25c-2.504,0.329-1.955,3.981-2.106,7.576
		c-0.206,4.9-0.257,14.887,0.387,18.119c2.914,14.616,27.862,14.616,30.854,0C99.439,87.324,99.37,77.334,99.164,72.435z"/>
	<path style="fill-rule:evenodd;clip-rule:evenodd;" d="M59.269,86.54c0.994,3.125,4.146,6.529,3.152,10.604
		c-1.34,5.484-11.093,6.735-12.32-0.288c-4.804,2.229-8.182,3.706-14.327,3.725C16.223,100.635,7.7,88.181,7.05,69.761
		C6.337,49.535,19.967,33.945,38.064,35.824C58.703,37.966,68.939,65.899,59.269,86.54z M34.757,47.576
		c-5.078,0.089-12.206,2.406-12.206,19.066c0,9.046,1.604,18.796,8.065,21.043c5.833,2.028,10.684-0.222,12.894-4.013
		c-4.478-5.094-3.6-12.068,3.438-12.318C47.408,61.385,46.514,47.37,34.757,47.576z"/>
</g>
<g id="guides">
</g>
</svg>
